<mxfile host="app.diagrams.net" modified="2023-10-17T19:41:15.018Z" agent="Mozilla/5.0 (Windows NT 10.0; Win64; x64) AppleWebKit/537.36 (KHTML, like Gecko) Chrome/110.0.0.0 Safari/537.36" etag="lSIMp80KewBa-iKSNZZ8" version="22.0.4" type="github">
  <diagram id="6a731a19-8d31-9384-78a2-239565b7b9f0" name="Page-1">
    <mxGraphModel dx="1434" dy="774" grid="1" gridSize="10" guides="1" tooltips="1" connect="1" arrows="1" fold="1" page="1" pageScale="1" pageWidth="1169" pageHeight="827" background="none" math="0" shadow="0">
      <root>
        <mxCell id="0" />
        <mxCell id="1" parent="0" />
        <mxCell id="1746" value="" style="edgeStyle=orthogonalEdgeStyle;rounded=0;jumpStyle=none;html=1;shadow=0;labelBackgroundColor=none;startArrow=none;startFill=0;endArrow=classic;endFill=1;jettySize=auto;orthogonalLoop=1;strokeColor=#2F5B7C;strokeWidth=3;fontFamily=Helvetica;fontSize=16;fontColor=#23445D;spacing=5;curved=1;" parent="1" source="1749" target="1771" edge="1">
          <mxGeometry relative="1" as="geometry">
            <Array as="points">
              <mxPoint x="870" y="335" />
              <mxPoint x="870" y="280" />
              <mxPoint x="930" y="280" />
              <mxPoint x="930" y="295" />
            </Array>
          </mxGeometry>
        </mxCell>
        <mxCell id="1748" value="" style="edgeStyle=orthogonalEdgeStyle;rounded=0;jumpStyle=none;html=1;shadow=0;labelBackgroundColor=none;startArrow=none;startFill=0;endArrow=classic;endFill=1;jettySize=auto;orthogonalLoop=1;strokeColor=#2F5B7C;strokeWidth=3;fontFamily=Helvetica;fontSize=16;fontColor=#23445D;spacing=5;curved=1;" parent="1" source="1749" target="1753" edge="1">
          <mxGeometry relative="1" as="geometry">
            <Array as="points">
              <mxPoint x="675" y="460" />
              <mxPoint x="650" y="460" />
              <mxPoint x="650" y="490" />
            </Array>
          </mxGeometry>
        </mxCell>
        <mxCell id="1749" value="Ordinateur" style="rounded=1;whiteSpace=wrap;html=1;shadow=0;labelBackgroundColor=none;strokeColor=default;strokeWidth=7;fillColor=#2F5B7C;fontFamily=Helvetica;fontSize=25;fontColor=#FFFFFF;align=center;fontStyle=1;spacing=5;arcSize=7;perimeterSpacing=2;" parent="1" vertex="1">
          <mxGeometry x="700" y="300" width="150" height="70" as="geometry" />
        </mxCell>
        <mxCell id="1750" value="" style="edgeStyle=none;rounded=1;jumpStyle=none;html=1;shadow=0;labelBackgroundColor=none;startArrow=none;startFill=0;jettySize=auto;orthogonalLoop=1;strokeColor=#E85642;strokeWidth=3;fontFamily=Helvetica;fontSize=14;fontColor=#FFFFFF;spacing=5;fontStyle=1;fillColor=#b0e3e6;" parent="1" source="1753" target="1756" edge="1">
          <mxGeometry relative="1" as="geometry">
            <Array as="points">
              <mxPoint x="545" y="210" />
            </Array>
          </mxGeometry>
        </mxCell>
        <mxCell id="1751" value="" style="edgeStyle=none;rounded=1;jumpStyle=none;html=1;shadow=0;labelBackgroundColor=none;startArrow=none;startFill=0;jettySize=auto;orthogonalLoop=1;strokeColor=#E85642;strokeWidth=3;fontFamily=Helvetica;fontSize=14;fontColor=#FFFFFF;spacing=5;fontStyle=1;fillColor=#b0e3e6;" parent="1" source="1753" target="1755" edge="1">
          <mxGeometry relative="1" as="geometry" />
        </mxCell>
        <mxCell id="1752" value="" style="edgeStyle=none;rounded=1;jumpStyle=none;html=1;shadow=0;labelBackgroundColor=none;startArrow=none;startFill=0;jettySize=auto;orthogonalLoop=1;strokeColor=#E85642;strokeWidth=3;fontFamily=Helvetica;fontSize=14;fontColor=#FFFFFF;spacing=5;fontStyle=1;fillColor=#b0e3e6;" parent="1" source="1753" target="1754" edge="1">
          <mxGeometry relative="1" as="geometry">
            <Array as="points">
              <mxPoint x="550" y="660" />
            </Array>
          </mxGeometry>
        </mxCell>
        <mxCell id="1753" value="périphériques" style="rounded=1;whiteSpace=wrap;html=1;shadow=0;labelBackgroundColor=none;strokeColor=default;strokeWidth=3;fillColor=#e85642;fontFamily=Helvetica;fontSize=20;fontColor=#FFFFFF;align=center;spacing=5;fontStyle=1;arcSize=7;perimeterSpacing=2;" parent="1" vertex="1">
          <mxGeometry x="470" y="414" width="150" height="60" as="geometry" />
        </mxCell>
        <mxCell id="1754" value="périphériques de stockages" style="rounded=1;whiteSpace=wrap;html=1;shadow=0;labelBackgroundColor=none;strokeColor=default;strokeWidth=3;fillColor=#f08e81;fontFamily=Helvetica;fontSize=20;fontColor=#FFFFFF;align=center;spacing=5;fontStyle=0;arcSize=7;perimeterSpacing=2;" parent="1" vertex="1">
          <mxGeometry x="90" y="630" width="280" height="60" as="geometry" />
        </mxCell>
        <mxCell id="1755" value="périphériques de sorties" style="rounded=1;whiteSpace=wrap;html=1;shadow=0;labelBackgroundColor=none;strokeColor=default;strokeWidth=3;fillColor=#f08e81;fontFamily=Helvetica;fontSize=20;fontColor=#FFFFFF;align=center;spacing=5;fontStyle=0;arcSize=7;perimeterSpacing=2;" parent="1" vertex="1">
          <mxGeometry x="100" y="420" width="270" height="60" as="geometry" />
        </mxCell>
        <mxCell id="1756" value="périphériques d&#39;entrées" style="rounded=1;whiteSpace=wrap;html=1;shadow=0;labelBackgroundColor=none;strokeColor=default;strokeWidth=3;fillColor=#f08e81;fontFamily=Helvetica;fontSize=20;fontColor=#FFFFFF;align=center;spacing=5;fontStyle=1;arcSize=7;perimeterSpacing=2;" parent="1" vertex="1">
          <mxGeometry x="100" y="180" width="260" height="60" as="geometry" />
        </mxCell>
        <mxCell id="1771" value="Unité centrale" style="rounded=1;whiteSpace=wrap;html=1;shadow=0;labelBackgroundColor=none;strokeColor=default;strokeWidth=3;fillColor=#12aab5;fontFamily=Helvetica;fontSize=20;fontColor=#FFFFFF;align=center;spacing=5;fontStyle=1;arcSize=7;perimeterSpacing=2;labelBorderColor=none;glass=0;" parent="1" vertex="1">
          <mxGeometry x="960" y="264.9999999999999" width="150" height="60" as="geometry" />
        </mxCell>
        <mxCell id="1772" value="Carte mère:&lt;br&gt;processeur, RAM, Disque dur.." style="rounded=1;whiteSpace=wrap;html=1;shadow=0;labelBackgroundColor=none;strokeColor=none;strokeWidth=3;fillColor=#61c6ce;fontFamily=Helvetica;fontSize=14;fontColor=#FFFFFF;align=center;spacing=5;fontStyle=1;arcSize=7;perimeterSpacing=2;" parent="1" vertex="1">
          <mxGeometry x="960" y="400" width="150" height="60" as="geometry" />
        </mxCell>
        <mxCell id="1773" value="" style="rounded=1;jumpStyle=none;html=1;shadow=0;labelBackgroundColor=none;startArrow=none;startFill=0;jettySize=auto;orthogonalLoop=1;strokeColor=#12AAB5;strokeWidth=3;fontFamily=Helvetica;fontSize=14;fontColor=#FFFFFF;spacing=5;fontStyle=1;fillColor=#b0e3e6;shape=arrow;gradientColor=none;" parent="1" source="1771" target="1772" edge="1">
          <mxGeometry relative="1" as="geometry">
            <mxPoint x="1040" y="390" as="targetPoint" />
          </mxGeometry>
        </mxCell>
        <mxCell id="JxR50IXifWo3DNcb5trE-1781" value="" style="edgeStyle=none;orthogonalLoop=1;jettySize=auto;html=1;rounded=0;exitX=0.5;exitY=1;exitDx=0;exitDy=0;shape=arrow;strokeColor=default;fillColor=#FF7A7A;" edge="1" parent="1" source="1756">
          <mxGeometry width="80" relative="1" as="geometry">
            <mxPoint x="730" y="530" as="sourcePoint" />
            <mxPoint x="230" y="300" as="targetPoint" />
            <Array as="points" />
          </mxGeometry>
        </mxCell>
        <mxCell id="JxR50IXifWo3DNcb5trE-1784" value="" style="edgeStyle=none;orthogonalLoop=1;jettySize=auto;html=1;rounded=0;exitX=0.5;exitY=1;exitDx=0;exitDy=0;shape=arrow;strokeColor=#000000;fillColor=#FF7A7A;" edge="1" parent="1" source="1754">
          <mxGeometry width="80" relative="1" as="geometry">
            <mxPoint x="229.5" y="690" as="sourcePoint" />
            <mxPoint x="229.5" y="748" as="targetPoint" />
            <Array as="points" />
          </mxGeometry>
        </mxCell>
        <mxCell id="JxR50IXifWo3DNcb5trE-1785" value="" style="edgeStyle=none;orthogonalLoop=1;jettySize=auto;html=1;rounded=0;shape=arrow;strokeColor=#000000;fillColor=#FF7A7A;exitX=0.5;exitY=1;exitDx=0;exitDy=0;" edge="1" parent="1" source="1755">
          <mxGeometry width="80" relative="1" as="geometry">
            <mxPoint x="210" y="540" as="sourcePoint" />
            <mxPoint x="235" y="540" as="targetPoint" />
            <Array as="points" />
          </mxGeometry>
        </mxCell>
        <mxCell id="JxR50IXifWo3DNcb5trE-1786" value="souris, clavier, scanner, appareil photo numérique , webcam" style="rounded=1;whiteSpace=wrap;html=1;shadow=0;labelBackgroundColor=none;strokeColor=none;strokeWidth=3;fillColor=#f08e81;fontFamily=Helvetica;fontSize=14;fontColor=#FFFFFF;align=center;spacing=5;fontStyle=1;arcSize=7;perimeterSpacing=2;" vertex="1" parent="1">
          <mxGeometry x="100" y="300" width="260" height="60" as="geometry" />
        </mxCell>
        <mxCell id="JxR50IXifWo3DNcb5trE-1787" value="ecran, imprimante, haut-parleur" style="rounded=1;whiteSpace=wrap;html=1;shadow=0;labelBackgroundColor=none;strokeColor=none;strokeWidth=3;fillColor=#f08e81;fontFamily=Helvetica;fontSize=14;fontColor=#FFFFFF;align=center;spacing=5;fontStyle=1;arcSize=7;perimeterSpacing=2;" vertex="1" parent="1">
          <mxGeometry x="105" y="540" width="260" height="60" as="geometry" />
        </mxCell>
        <mxCell id="JxR50IXifWo3DNcb5trE-1788" value="disque dur, clé usb, dvd, cd..." style="rounded=1;whiteSpace=wrap;html=1;shadow=0;labelBackgroundColor=none;strokeColor=none;strokeWidth=3;fillColor=#f08e81;fontFamily=Helvetica;fontSize=14;fontColor=#FFFFFF;align=center;spacing=5;fontStyle=1;arcSize=7;perimeterSpacing=2;" vertex="1" parent="1">
          <mxGeometry x="100" y="750" width="260" height="60" as="geometry" />
        </mxCell>
        <mxCell id="JxR50IXifWo3DNcb5trE-1789" value="&lt;h1 style=&quot;line-height: 120%;&quot;&gt;&lt;b&gt;&lt;font color=&quot;#009900&quot;&gt;Carte mentale résumant les composants de l&#39;ordinateur&lt;/font&gt;&lt;/b&gt;&lt;/h1&gt;" style="text;align=center;html=1;verticalAlign=middle;whiteSpace=wrap;rounded=0;glass=0;shadow=0;" vertex="1" parent="1">
          <mxGeometry x="470" y="710" width="710" height="30" as="geometry" />
        </mxCell>
      </root>
    </mxGraphModel>
  </diagram>
</mxfile>
